<svg xmlns="http://www.w3.org/2000/svg" xmlns:xlink="http://www.w3.org/1999/xlink" width="714" zoomAndPan="magnify" viewBox="0 0 535.5 147.750002" height="197" preserveAspectRatio="xMidYMid meet" version="1.0"><defs><clipPath id="edf04f4b7c"><path d="M 0.203125 51.59375 L 45.210938 51.59375 L 45.210938 113.414062 L 0.203125 113.414062 Z M 0.203125 51.59375 " clip-rule="nonzero"/></clipPath><clipPath id="c95ff808cd"><path d="M 25.128906 81.542969 C 30.859375 81.542969 35.871094 76.699219 35.871094 70.621094 C 35.871094 64.902344 30.851562 60.136719 25.128906 60.136719 L 9.445312 60.136719 L 9.445312 81.542969 Z M 0.203125 53.269531 C 0.203125 52.382812 0.910156 51.59375 1.878906 51.59375 L 25.839844 51.59375 C 36.402344 51.59375 45.035156 59.957031 45.035156 70.441406 C 45.035156 78.546875 39.667969 85.234375 32 88.320312 L 44.070312 110.691406 C 44.6875 111.839844 44.070312 113.25 42.570312 113.25 L 35.703125 113.25 C 34.992188 113.25 34.464844 112.808594 34.296875 112.460938 L 22.574219 89.109375 L 9.277344 89.109375 L 9.277344 111.570312 C 9.277344 112.449219 8.488281 113.25 7.601562 113.25 L 1.878906 113.25 C 0.910156 113.25 0.203125 112.460938 0.203125 111.570312 Z M 0.203125 53.269531 " clip-rule="nonzero"/></clipPath><clipPath id="b9d3d104a1"><path d="M 67.582031 51.59375 L 76.777344 51.59375 L 76.777344 113.285156 L 67.582031 113.285156 Z M 67.582031 51.59375 " clip-rule="nonzero"/></clipPath><clipPath id="4d8b21562c"><path d="M 67.582031 53.269531 C 67.582031 52.382812 68.371094 51.59375 69.257812 51.59375 L 75.070312 51.59375 C 75.949219 51.59375 76.746094 52.382812 76.746094 53.269531 L 76.746094 111.570312 C 76.746094 112.449219 75.957031 113.25 75.070312 113.25 L 69.257812 113.25 C 68.371094 113.25 67.582031 112.449219 67.582031 111.570312 Z M 67.582031 53.269531 " clip-rule="nonzero"/></clipPath><clipPath id="b3282b2b53"><path d="M 95.0625 51.59375 L 136.28125 51.59375 L 136.28125 113.265625 L 95.0625 113.265625 Z M 95.0625 51.59375 " clip-rule="nonzero"/></clipPath><clipPath id="03d05bc146"><path d="M 111.09375 59.871094 L 96.738281 59.871094 C 95.761719 59.871094 95.0625 59.082031 95.0625 58.203125 L 95.0625 53.269531 C 95.0625 52.382812 95.761719 51.59375 96.738281 51.59375 L 134.605469 51.59375 C 135.574219 51.59375 136.28125 52.382812 136.28125 53.269531 L 136.28125 58.203125 C 136.28125 59.082031 135.574219 59.878906 134.605469 59.878906 L 120.25 59.878906 L 120.25 111.570312 C 120.25 112.449219 119.460938 113.25 118.570312 113.25 L 112.761719 113.25 C 111.882812 113.25 111.085938 112.460938 111.085938 111.570312 Z M 111.09375 59.871094 " clip-rule="nonzero"/></clipPath><clipPath id="ba355b68be"><path d="M 153.808594 51.59375 L 201.910156 51.59375 L 201.910156 114.292969 L 153.808594 114.292969 Z M 153.808594 51.59375 " clip-rule="nonzero"/></clipPath><clipPath id="a42ff939d9"><path d="M 153.808594 53.269531 C 153.808594 52.382812 154.597656 51.59375 155.484375 51.59375 L 161.386719 51.59375 C 162.355469 51.59375 163.0625 52.382812 163.0625 53.269531 L 163.0625 89.640625 C 163.0625 98.445312 168.703125 105.324219 177.6875 105.324219 C 186.761719 105.324219 192.484375 98.542969 192.484375 89.820312 L 192.484375 53.269531 C 192.484375 52.390625 193.179688 51.59375 194.160156 51.59375 L 200.058594 51.59375 C 200.929688 51.59375 201.726562 52.382812 201.726562 53.269531 L 201.726562 90.257812 C 201.726562 103.644531 191.59375 114.128906 177.679688 114.128906 C 163.851562 114.128906 153.808594 103.644531 153.808594 90.257812 Z M 153.808594 53.269531 " clip-rule="nonzero"/></clipPath><clipPath id="db0f55bba6"><path d="M 272.191406 4.726562 L 321.558594 4.726562 L 321.558594 54 L 272.191406 54 Z M 272.191406 4.726562 " clip-rule="nonzero"/></clipPath><clipPath id="51a9677383"><path d="M 274.605469 34.699219 C 274.605469 24.179688 283.132812 15.652344 293.652344 15.652344 C 304.175781 15.652344 312.699219 24.179688 312.699219 34.699219 C 312.699219 44.675781 305.023438 52.851562 295.261719 53.667969 C 295.800781 53.707031 296.328125 53.75 296.867188 53.75 C 310.335938 53.75 321.246094 42.835938 321.246094 29.371094 C 321.246094 15.902344 310.335938 4.992188 296.878906 4.992188 C 283.421875 4.992188 272.5 15.902344 272.5 29.371094 C 272.5 34.011719 273.816406 38.324219 276.0625 42.019531 C 275.125 39.761719 274.605469 37.296875 274.605469 34.699219 " clip-rule="nonzero"/></clipPath><clipPath id="5a2377a80d"><path d="M 234.378906 51 L 359.375 51 L 359.375 142.324219 L 234.378906 142.324219 Z M 234.378906 51 " clip-rule="nonzero"/></clipPath><clipPath id="ef48a775f9"><path d="M 346.234375 57.960938 C 331.757812 46.902344 315.167969 54.808594 308.699219 58.203125 C 302.039062 61.695312 299.433594 63.972656 299.433594 63.972656 C 299.433594 63.972656 287.503906 50.902344 269.136719 51.453125 C 250.765625 52 231.019531 68.132812 235.210938 97.324219 C 239.40625 126.515625 276.664062 143.765625 303.175781 141.878906 C 303.175781 141.878906 265.121094 134.09375 251.253906 109.34375 C 237.390625 84.597656 249.816406 61.886719 269.652344 61.335938 C 289.492188 60.785156 298.15625 77.308594 298.15625 77.308594 C 298.15625 77.308594 315.457031 60.4375 334.734375 63.011719 C 334.734375 63.011719 358.582031 69.171875 347.0625 96.464844 C 335.542969 123.761719 299.773438 125.136719 292.445312 121.175781 C 285.117188 117.210938 278.039062 105.589844 288.472656 99.140625 C 300.140625 91.925781 305.753906 101.226562 315.886719 99.382812 C 328.722656 97.035156 325.949219 83.488281 332.605469 81.28125 C 339.265625 79.074219 342.789062 82.109375 342.789062 82.109375 C 342.789062 82.109375 339.835938 74.644531 328.855469 76.519531 C 317.871094 78.398438 320.277344 89.996094 314.71875 90.964844 C 309.15625 91.933594 295.152344 85.613281 284.898438 90.328125 C 274.644531 95.039062 264.304688 109.824219 282.722656 124.988281 C 301.140625 140.152344 340.953125 125.605469 352.023438 105.699219 C 362.867188 86.195312 361.527344 69.640625 346.234375 57.972656 " clip-rule="nonzero"/></clipPath><clipPath id="534c7f5dab"><path d="M 393.703125 51.59375 L 402.898438 51.59375 L 402.898438 113.285156 L 393.703125 113.285156 Z M 393.703125 51.59375 " clip-rule="nonzero"/></clipPath><clipPath id="3c0e764135"><path d="M 393.703125 53.269531 C 393.703125 52.382812 394.492188 51.59375 395.378906 51.59375 L 401.1875 51.59375 C 402.066406 51.59375 402.867188 52.382812 402.867188 53.269531 L 402.867188 111.570312 C 402.867188 112.449219 402.078125 113.25 401.1875 113.25 L 395.378906 113.25 C 394.492188 113.25 393.703125 112.449219 393.703125 111.570312 Z M 393.703125 53.269531 " clip-rule="nonzero"/></clipPath><clipPath id="6bcb2756ba"><path d="M 420.386719 51.59375 L 478.519531 51.59375 L 478.519531 114.269531 L 420.386719 114.269531 Z M 420.386719 51.59375 " clip-rule="nonzero"/></clipPath><clipPath id="ccc5d0c209"><path d="M 420.566406 53.878906 C 420.039062 52.742188 420.738281 51.59375 422.066406 51.59375 L 428.316406 51.59375 C 429.023438 51.59375 429.632812 52.121094 429.8125 52.5625 L 449.1875 96.15625 L 449.71875 96.15625 L 469.09375 52.5625 C 469.273438 52.121094 469.804688 51.59375 470.59375 51.59375 L 476.84375 51.59375 C 478.160156 51.59375 478.867188 52.742188 478.339844 53.878906 L 451.304688 113.160156 C 451.046875 113.6875 450.515625 114.125 449.808594 114.125 L 448.929688 114.125 C 448.308594 114.125 447.691406 113.6875 447.433594 113.160156 Z M 420.566406 53.878906 " clip-rule="nonzero"/></clipPath><clipPath id="8fb4abb2ea"><path d="M 496.046875 51.59375 L 534.773438 51.59375 L 534.773438 113.378906 L 496.046875 113.378906 Z M 496.046875 51.59375 " clip-rule="nonzero"/></clipPath><clipPath id="946d0ad8bf"><path d="M 496.046875 53.269531 C 496.046875 52.382812 496.753906 51.59375 497.722656 51.59375 L 532.953125 51.59375 C 533.921875 51.59375 534.628906 52.382812 534.628906 53.269531 L 534.628906 58.203125 C 534.628906 59.082031 533.929688 59.878906 532.953125 59.878906 L 505.121094 59.878906 L 505.121094 80.214844 L 528.628906 80.214844 C 529.507812 80.214844 530.308594 81.003906 530.308594 81.890625 L 530.308594 86.734375 C 530.308594 87.613281 529.519531 88.410156 528.628906 88.410156 L 505.121094 88.410156 L 505.121094 111.570312 C 505.121094 112.449219 504.332031 113.25 503.441406 113.25 L 497.722656 113.25 C 496.753906 113.25 496.046875 112.449219 496.046875 111.570312 Z M 496.046875 53.269531 " clip-rule="nonzero"/></clipPath></defs><g clip-path="url(#edf04f4b7c)"><g clip-path="url(#c95ff808cd)"><path fill="#485156" d="M 0.203125 51.59375 L 45.035156 51.59375 L 45.035156 113.238281 L 0.203125 113.238281 Z M 0.203125 51.59375 " fill-opacity="1" fill-rule="nonzero"/></g></g><g clip-path="url(#b9d3d104a1)"><g clip-path="url(#4d8b21562c)"><path fill="#485156" d="M 67.582031 51.59375 L 76.742188 51.59375 L 76.742188 113.246094 L 67.582031 113.246094 Z M 67.582031 51.59375 " fill-opacity="1" fill-rule="nonzero"/></g></g><g clip-path="url(#b3282b2b53)"><g clip-path="url(#03d05bc146)"><path fill="#485156" d="M 95.0625 51.59375 L 136.28125 51.59375 L 136.28125 113.265625 L 95.0625 113.265625 Z M 95.0625 51.59375 " fill-opacity="1" fill-rule="nonzero"/></g></g><g clip-path="url(#ba355b68be)"><g clip-path="url(#a42ff939d9)"><path fill="#485156" d="M 153.808594 51.59375 L 201.722656 51.59375 L 201.722656 114.109375 L 153.808594 114.109375 Z M 153.808594 51.59375 " fill-opacity="1" fill-rule="nonzero"/></g></g><g clip-path="url(#db0f55bba6)"><g clip-path="url(#51a9677383)"><path fill="#ec6608" d="M 229.652344 0 L 364.101562 0 L 364.101562 147.050781 L 229.652344 147.050781 Z M 229.652344 0 " fill-opacity="1" fill-rule="nonzero"/></g></g><g clip-path="url(#5a2377a80d)"><g clip-path="url(#ef48a775f9)"><path fill="#ec6608" d="M 229.652344 0 L 364.101562 0 L 364.101562 147.050781 L 229.652344 147.050781 Z M 229.652344 0 " fill-opacity="1" fill-rule="nonzero"/></g></g><g clip-path="url(#534c7f5dab)"><g clip-path="url(#3c0e764135)"><path fill="#485156" d="M 393.703125 51.59375 L 402.863281 51.59375 L 402.863281 113.246094 L 393.703125 113.246094 Z M 393.703125 51.59375 " fill-opacity="1" fill-rule="nonzero"/></g></g><g clip-path="url(#6bcb2756ba)"><g clip-path="url(#ccc5d0c209)"><path fill="#485156" d="M 420.386719 51.59375 L 478.519531 51.59375 L 478.519531 114.039062 L 420.386719 114.039062 Z M 420.386719 51.59375 " fill-opacity="1" fill-rule="nonzero"/></g></g><g clip-path="url(#8fb4abb2ea)"><g clip-path="url(#946d0ad8bf)"><path fill="#485156" d="M 496.046875 51.59375 L 534.625 51.59375 L 534.625 113.230469 L 496.046875 113.230469 Z M 496.046875 51.59375 " fill-opacity="1" fill-rule="nonzero"/></g></g></svg>

